solid CATIA STL
  facet normal -1.000000e+000  0.000000e+000  0.000000e+000
    outer loop
      vertex -1.500000e+001  1.050000e+002  5.000000e+000
      vertex -1.500000e+001  1.050000e+002  0.000000e+000
      vertex -1.500000e+001 -1.500000e+001  5.000000e+000
    endloop
  endfacet
  facet normal -1.000000e+000  0.000000e+000  0.000000e+000
    outer loop
      vertex -1.500000e+001 -1.500000e+001  5.000000e+000
      vertex -1.500000e+001  1.050000e+002  0.000000e+000
      vertex -1.500000e+001 -1.500000e+001  0.000000e+000
    endloop
  endfacet
  facet normal  0.000000e+000 -1.000000e+000  0.000000e+000
    outer loop
      vertex  1.050000e+002 -1.500000e+001  5.000000e+000
      vertex -1.500000e+001 -1.500000e+001  5.000000e+000
      vertex  1.050000e+002 -1.500000e+001  0.000000e+000
    endloop
  endfacet
  facet normal  0.000000e+000 -1.000000e+000  0.000000e+000
    outer loop
      vertex  1.050000e+002 -1.500000e+001  0.000000e+000
      vertex -1.500000e+001 -1.500000e+001  5.000000e+000
      vertex -1.500000e+001 -1.500000e+001  0.000000e+000
    endloop
  endfacet
  facet normal  1.000000e+000  0.000000e+000  0.000000e+000
    outer loop
      vertex  1.050000e+002 -1.500000e+001  5.000000e+000
      vertex  1.050000e+002 -1.500000e+001  0.000000e+000
      vertex  1.050000e+002  1.050000e+002  5.000000e+000
    endloop
  endfacet
  facet normal  1.000000e+000  0.000000e+000  0.000000e+000
    outer loop
      vertex  1.050000e+002  1.050000e+002  5.000000e+000
      vertex  1.050000e+002 -1.500000e+001  0.000000e+000
      vertex  1.050000e+002  1.050000e+002  0.000000e+000
    endloop
  endfacet
  facet normal  0.000000e+000  1.000000e+000  0.000000e+000
    outer loop
      vertex -1.500000e+001  1.050000e+002  5.000000e+000
      vertex  1.050000e+002  1.050000e+002  5.000000e+000
      vertex -1.500000e+001  1.050000e+002  0.000000e+000
    endloop
  endfacet
  facet normal  0.000000e+000  1.000000e+000  0.000000e+000
    outer loop
      vertex -1.500000e+001  1.050000e+002  0.000000e+000
      vertex  1.050000e+002  1.050000e+002  5.000000e+000
      vertex  1.050000e+002  1.050000e+002  0.000000e+000
    endloop
  endfacet
  facet normal  0.000000e+000  0.000000e+000  1.000000e+000
    outer loop
      vertex  8.500000e+001  9.000000e+001  5.000000e+000
      vertex  9.741115e+001  9.811909e+001  5.000000e+000
      vertex  9.680000e+001  1.000000e+002  5.000000e+000
    endloop
  endfacet
  facet normal  0.000000e+000  0.000000e+000  1.000000e+000
    outer loop
      vertex  8.500000e+001  9.000000e+001  5.000000e+000
      vertex  9.901115e+001  9.695662e+001  5.000000e+000
      vertex  9.741115e+001  9.811909e+001  5.000000e+000
    endloop
  endfacet
  facet normal  0.000000e+000  0.000000e+000  1.000000e+000
    outer loop
      vertex  8.500000e+001  9.000000e+001  5.000000e+000
      vertex -9.011146e+000  1.030434e+002  5.000000e+000
      vertex -7.411146e+000  1.018809e+002  5.000000e+000
    endloop
  endfacet
  facet normal  -0.000000e+000  0.000000e+000  1.000000e+000
    outer loop
      vertex  8.500000e+001  3.500000e+001  5.000000e+000
      vertex -6.800000e+000 -1.000000e+001  5.000000e+000
      vertex -7.411146e+000 -1.188091e+001  5.000000e+000
    endloop
  endfacet
  facet normal  -0.000000e+000  0.000000e+000  1.000000e+000
    outer loop
      vertex  8.500000e+001  3.500000e+001  5.000000e+000
      vertex -7.411146e+000 -1.188091e+001  5.000000e+000
      vertex -9.011146e+000 -1.304338e+001  5.000000e+000
    endloop
  endfacet
  facet normal  0.000000e+000  0.000000e+000  1.000000e+000
    outer loop
      vertex  8.500000e+001  3.500000e+001  5.000000e+000
      vertex -9.011146e+000 -1.304338e+001  5.000000e+000
      vertex  9.680000e+001 -1.000000e+001  5.000000e+000
    endloop
  endfacet
  facet normal  0.000000e+000  -0.000000e+000  1.000000e+000
    outer loop
      vertex  8.500000e+001  3.500000e+001  5.000000e+000
      vertex  9.680000e+001 -1.000000e+001  5.000000e+000
      vertex  9.741115e+001 -8.119087e+000  5.000000e+000
    endloop
  endfacet
  facet normal  0.000000e+000  -0.000000e+000  1.000000e+000
    outer loop
      vertex  8.500000e+001  3.500000e+001  5.000000e+000
      vertex  9.741115e+001 -8.119087e+000  5.000000e+000
      vertex  9.901115e+001 -6.956619e+000  5.000000e+000
    endloop
  endfacet
  facet normal  0.000000e+000  0.000000e+000  9.999999e-001
    outer loop
      vertex  5.000000e+000  9.000000e+001  5.000000e+000
      vertex  8.500000e+001  9.000000e+001  5.000000e+000
      vertex -7.411146e+000  1.018809e+002  5.000000e+000
    endloop
  endfacet
  facet normal  0.000000e+000  0.000000e+000  1.000000e+000
    outer loop
      vertex  5.000000e+000  9.000000e+001  5.000000e+000
      vertex -7.411146e+000  1.018809e+002  5.000000e+000
      vertex -6.800000e+000  1.000000e+002  5.000000e+000
    endloop
  endfacet
  facet normal  0.000000e+000  0.000000e+000  1.000000e+000
    outer loop
      vertex  5.000000e+000  9.000000e+001  5.000000e+000
      vertex -6.800000e+000  1.000000e+002  5.000000e+000
      vertex -7.411146e+000  9.811909e+001  5.000000e+000
    endloop
  endfacet
  facet normal  0.000000e+000  0.000000e+000  1.000000e+000
    outer loop
      vertex  5.000000e+000  9.000000e+001  5.000000e+000
      vertex -7.411146e+000  9.811909e+001  5.000000e+000
      vertex -9.011146e+000  9.695662e+001  5.000000e+000
    endloop
  endfacet
  facet normal  -0.000000e+000  0.000000e+000  1.000000e+000
    outer loop
      vertex  5.000000e+000  3.500000e+001  5.000000e+000
      vertex -9.011146e+000 -6.956619e+000  5.000000e+000
      vertex -7.411146e+000 -8.119087e+000  5.000000e+000
    endloop
  endfacet
  facet normal  -0.000000e+000  0.000000e+000  1.000000e+000
    outer loop
      vertex  5.000000e+000  3.500000e+001  5.000000e+000
      vertex -7.411146e+000 -8.119087e+000  5.000000e+000
      vertex -6.800000e+000 -1.000000e+001  5.000000e+000
    endloop
  endfacet
  facet normal  0.000000e+000  0.000000e+000  1.000000e+000
    outer loop
      vertex  5.000000e+000  3.500000e+001  5.000000e+000
      vertex -6.800000e+000 -1.000000e+001  5.000000e+000
      vertex  8.500000e+001  3.500000e+001  5.000000e+000
    endloop
  endfacet
  facet normal  0.000000e+000  0.000000e+000  1.000000e+000
    outer loop
      vertex -1.500000e+001  1.050000e+002  5.000000e+000
      vertex -1.500000e+001 -1.500000e+001  5.000000e+000
      vertex -1.320000e+001  1.000000e+002  5.000000e+000
    endloop
  endfacet
  facet normal  0.000000e+000  -0.000000e+000  1.000000e+000
    outer loop
      vertex -1.500000e+001  1.050000e+002  5.000000e+000
      vertex -1.320000e+001  1.000000e+002  5.000000e+000
      vertex -1.258885e+001  1.018809e+002  5.000000e+000
    endloop
  endfacet
  facet normal  0.000000e+000  -0.000000e+000  1.000000e+000
    outer loop
      vertex -1.500000e+001  1.050000e+002  5.000000e+000
      vertex -1.258885e+001  1.018809e+002  5.000000e+000
      vertex -1.098885e+001  1.030434e+002  5.000000e+000
    endloop
  endfacet
  facet normal  0.000000e+000  -0.000000e+000  1.000000e+000
    outer loop
      vertex -1.500000e+001  1.050000e+002  5.000000e+000
      vertex -1.098885e+001  1.030434e+002  5.000000e+000
      vertex -9.011146e+000  1.030434e+002  5.000000e+000
    endloop
  endfacet
  facet normal  -0.000000e+000  -0.000000e+000  1.000000e+000
    outer loop
      vertex -1.500000e+001  1.050000e+002  5.000000e+000
      vertex -9.011146e+000  1.030434e+002  5.000000e+000
      vertex  8.500000e+001  9.000000e+001  5.000000e+000
    endloop
  endfacet
  facet normal  0.000000e+000  -0.000000e+000  9.999999e-001
    outer loop
      vertex -1.500000e+001  1.050000e+002  5.000000e+000
      vertex  8.500000e+001  9.000000e+001  5.000000e+000
      vertex  9.680000e+001  1.000000e+002  5.000000e+000
    endloop
  endfacet
  facet normal  0.000000e+000  -0.000000e+000  1.000000e+000
    outer loop
      vertex -1.500000e+001  1.050000e+002  5.000000e+000
      vertex  9.680000e+001  1.000000e+002  5.000000e+000
      vertex  9.741115e+001  1.018809e+002  5.000000e+000
    endloop
  endfacet
  facet normal  0.000000e+000  -0.000000e+000  1.000000e+000
    outer loop
      vertex -1.500000e+001  1.050000e+002  5.000000e+000
      vertex  9.741115e+001  1.018809e+002  5.000000e+000
      vertex  9.901115e+001  1.030434e+002  5.000000e+000
    endloop
  endfacet
  facet normal  0.000000e+000  -0.000000e+000  1.000000e+000
    outer loop
      vertex -1.500000e+001  1.050000e+002  5.000000e+000
      vertex  9.901115e+001  1.030434e+002  5.000000e+000
      vertex  1.009889e+002  1.030434e+002  5.000000e+000
    endloop
  endfacet
  facet normal  0.000000e+000  -0.000000e+000  1.000000e+000
    outer loop
      vertex -1.500000e+001  1.050000e+002  5.000000e+000
      vertex  1.009889e+002  1.030434e+002  5.000000e+000
      vertex  1.050000e+002  1.050000e+002  5.000000e+000
    endloop
  endfacet
  facet normal  0.000000e+000  0.000000e+000  1.000000e+000
    outer loop
      vertex -1.500000e+001 -1.500000e+001  5.000000e+000
      vertex  1.050000e+002 -1.500000e+001  5.000000e+000
      vertex  1.009889e+002 -1.304338e+001  5.000000e+000
    endloop
  endfacet
  facet normal  0.000000e+000  0.000000e+000  1.000000e+000
    outer loop
      vertex -1.500000e+001 -1.500000e+001  5.000000e+000
      vertex  1.009889e+002 -1.304338e+001  5.000000e+000
      vertex  9.901115e+001 -1.304338e+001  5.000000e+000
    endloop
  endfacet
  facet normal  0.000000e+000  0.000000e+000  1.000000e+000
    outer loop
      vertex -1.500000e+001 -1.500000e+001  5.000000e+000
      vertex  9.901115e+001 -1.304338e+001  5.000000e+000
      vertex  9.741115e+001 -1.188091e+001  5.000000e+000
    endloop
  endfacet
  facet normal  0.000000e+000  0.000000e+000  1.000000e+000
    outer loop
      vertex -1.500000e+001 -1.500000e+001  5.000000e+000
      vertex  9.741115e+001 -1.188091e+001  5.000000e+000
      vertex  9.680000e+001 -1.000000e+001  5.000000e+000
    endloop
  endfacet
  facet normal  0.000000e+000  0.000000e+000  1.000000e+000
    outer loop
      vertex -1.500000e+001 -1.500000e+001  5.000000e+000
      vertex  9.680000e+001 -1.000000e+001  5.000000e+000
      vertex -9.011146e+000 -1.304338e+001  5.000000e+000
    endloop
  endfacet
  facet normal  0.000000e+000  0.000000e+000  1.000000e+000
    outer loop
      vertex -1.500000e+001 -1.500000e+001  5.000000e+000
      vertex -9.011146e+000 -1.304338e+001  5.000000e+000
      vertex -1.098885e+001 -1.304338e+001  5.000000e+000
    endloop
  endfacet
  facet normal  0.000000e+000  0.000000e+000  1.000000e+000
    outer loop
      vertex -1.500000e+001 -1.500000e+001  5.000000e+000
      vertex -1.098885e+001 -1.304338e+001  5.000000e+000
      vertex -1.258885e+001 -1.188091e+001  5.000000e+000
    endloop
  endfacet
  facet normal  0.000000e+000  0.000000e+000  1.000000e+000
    outer loop
      vertex -1.500000e+001 -1.500000e+001  5.000000e+000
      vertex -1.258885e+001 -1.188091e+001  5.000000e+000
      vertex -1.320000e+001 -1.000000e+001  5.000000e+000
    endloop
  endfacet
  facet normal  0.000000e+000  -0.000000e+000  1.000000e+000
    outer loop
      vertex -1.500000e+001 -1.500000e+001  5.000000e+000
      vertex -1.320000e+001 -1.000000e+001  5.000000e+000
      vertex -1.258885e+001 -8.119087e+000  5.000000e+000
    endloop
  endfacet
  facet normal  0.000000e+000  -0.000000e+000  1.000000e+000
    outer loop
      vertex -1.500000e+001 -1.500000e+001  5.000000e+000
      vertex -1.258885e+001 -8.119087e+000  5.000000e+000
      vertex -1.098885e+001  9.695662e+001  5.000000e+000
    endloop
  endfacet
  facet normal  0.000000e+000  0.000000e+000  1.000000e+000
    outer loop
      vertex -1.500000e+001 -1.500000e+001  5.000000e+000
      vertex -1.098885e+001  9.695662e+001  5.000000e+000
      vertex -1.258885e+001  9.811909e+001  5.000000e+000
    endloop
  endfacet
  facet normal  0.000000e+000  0.000000e+000  1.000000e+000
    outer loop
      vertex -1.500000e+001 -1.500000e+001  5.000000e+000
      vertex -1.258885e+001  9.811909e+001  5.000000e+000
      vertex -1.320000e+001  1.000000e+002  5.000000e+000
    endloop
  endfacet
  facet normal  0.000000e+000  0.000000e+000  1.000000e+000
    outer loop
      vertex  1.050000e+002 -1.500000e+001  5.000000e+000
      vertex  1.032000e+002  1.000000e+002  5.000000e+000
      vertex  1.025889e+002  9.811909e+001  5.000000e+000
    endloop
  endfacet
  facet normal  0.000000e+000  0.000000e+000  1.000000e+000
    outer loop
      vertex  1.050000e+002 -1.500000e+001  5.000000e+000
      vertex  1.025889e+002  9.811909e+001  5.000000e+000
      vertex  1.009889e+002  9.695662e+001  5.000000e+000
    endloop
  endfacet
  facet normal  0.000000e+000  0.000000e+000  1.000000e+000
    outer loop
      vertex  1.050000e+002 -1.500000e+001  5.000000e+000
      vertex  1.009889e+002  9.695662e+001  5.000000e+000
      vertex  1.025889e+002 -8.119087e+000  5.000000e+000
    endloop
  endfacet
  facet normal  0.000000e+000  0.000000e+000  1.000000e+000
    outer loop
      vertex  1.050000e+002 -1.500000e+001  5.000000e+000
      vertex  1.025889e+002 -8.119087e+000  5.000000e+000
      vertex  1.032000e+002 -1.000000e+001  5.000000e+000
    endloop
  endfacet
  facet normal  0.000000e+000  0.000000e+000  1.000000e+000
    outer loop
      vertex  1.050000e+002 -1.500000e+001  5.000000e+000
      vertex  1.032000e+002 -1.000000e+001  5.000000e+000
      vertex  1.025889e+002 -1.188091e+001  5.000000e+000
    endloop
  endfacet
  facet normal  0.000000e+000  0.000000e+000  1.000000e+000
    outer loop
      vertex  1.050000e+002 -1.500000e+001  5.000000e+000
      vertex  1.025889e+002 -1.188091e+001  5.000000e+000
      vertex  1.009889e+002 -1.304338e+001  5.000000e+000
    endloop
  endfacet
  facet normal  -0.000000e+000  0.000000e+000  1.000000e+000
    outer loop
      vertex  1.050000e+002  1.050000e+002  5.000000e+000
      vertex  1.009889e+002  1.030434e+002  5.000000e+000
      vertex  1.025889e+002  1.018809e+002  5.000000e+000
    endloop
  endfacet
  facet normal  -0.000000e+000  0.000000e+000  1.000000e+000
    outer loop
      vertex  1.050000e+002  1.050000e+002  5.000000e+000
      vertex  1.025889e+002  1.018809e+002  5.000000e+000
      vertex  1.032000e+002  1.000000e+002  5.000000e+000
    endloop
  endfacet
  facet normal  -0.000000e+000  0.000000e+000  1.000000e+000
    outer loop
      vertex  1.050000e+002  1.050000e+002  5.000000e+000
      vertex  1.032000e+002  1.000000e+002  5.000000e+000
      vertex  1.050000e+002 -1.500000e+001  5.000000e+000
    endloop
  endfacet
  facet normal  0.000000e+000  0.000000e+000  1.000000e+000
    outer loop
      vertex  5.000000e+000  3.500000e+001  5.000000e+000
      vertex  5.000000e+000  9.000000e+001  5.000000e+000
      vertex -9.011146e+000 -6.956619e+000  5.000000e+000
    endloop
  endfacet
  facet normal  0.000000e+000  0.000000e+000  1.000000e+000
    outer loop
      vertex -9.011146e+000 -6.956619e+000  5.000000e+000
      vertex  5.000000e+000  9.000000e+001  5.000000e+000
      vertex -9.011146e+000  9.695662e+001  5.000000e+000
    endloop
  endfacet
  facet normal  0.000000e+000  0.000000e+000  1.000000e+000
    outer loop
      vertex -9.011146e+000 -6.956619e+000  5.000000e+000
      vertex -9.011146e+000  9.695662e+001  5.000000e+000
      vertex -1.098885e+001 -6.956619e+000  5.000000e+000
    endloop
  endfacet
  facet normal  0.000000e+000  0.000000e+000  1.000000e+000
    outer loop
      vertex -1.098885e+001 -6.956619e+000  5.000000e+000
      vertex -9.011146e+000  9.695662e+001  5.000000e+000
      vertex -1.098885e+001  9.695662e+001  5.000000e+000
    endloop
  endfacet
  facet normal  0.000000e+000  0.000000e+000  1.000000e+000
    outer loop
      vertex -1.098885e+001 -6.956619e+000  5.000000e+000
      vertex -1.098885e+001  9.695662e+001  5.000000e+000
      vertex -1.258885e+001 -8.119087e+000  5.000000e+000
    endloop
  endfacet
  facet normal  0.000000e+000  0.000000e+000  1.000000e+000
    outer loop
      vertex  8.500000e+001  9.000000e+001  5.000000e+000
      vertex  8.500000e+001  3.500000e+001  5.000000e+000
      vertex  9.901115e+001  9.695662e+001  5.000000e+000
    endloop
  endfacet
  facet normal  0.000000e+000  0.000000e+000  1.000000e+000
    outer loop
      vertex  9.901115e+001  9.695662e+001  5.000000e+000
      vertex  8.500000e+001  3.500000e+001  5.000000e+000
      vertex  9.901115e+001 -6.956619e+000  5.000000e+000
    endloop
  endfacet
  facet normal  0.000000e+000  0.000000e+000  1.000000e+000
    outer loop
      vertex  9.901115e+001  9.695662e+001  5.000000e+000
      vertex  9.901115e+001 -6.956619e+000  5.000000e+000
      vertex  1.009889e+002  9.695662e+001  5.000000e+000
    endloop
  endfacet
  facet normal  0.000000e+000  0.000000e+000  1.000000e+000
    outer loop
      vertex  1.009889e+002  9.695662e+001  5.000000e+000
      vertex  9.901115e+001 -6.956619e+000  5.000000e+000
      vertex  1.009889e+002 -6.956619e+000  5.000000e+000
    endloop
  endfacet
  facet normal  -0.000000e+000  0.000000e+000  1.000000e+000
    outer loop
      vertex  1.009889e+002  9.695662e+001  5.000000e+000
      vertex  1.009889e+002 -6.956619e+000  5.000000e+000
      vertex  1.025889e+002 -8.119087e+000  5.000000e+000
    endloop
  endfacet
  facet normal  -0.000000e+000  0.000000e+000 -1.000000e+000
    outer loop
      vertex  9.680000e+001  1.000000e+002  0.000000e+000
      vertex  9.741115e+001  9.811909e+001  0.000000e+000
      vertex  8.500000e+001  9.000000e+001  0.000000e+000
    endloop
  endfacet
  facet normal  -0.000000e+000  0.000000e+000 -1.000000e+000
    outer loop
      vertex  9.741115e+001  9.811909e+001  0.000000e+000
      vertex  9.901115e+001  9.695662e+001  0.000000e+000
      vertex  8.500000e+001  9.000000e+001  0.000000e+000
    endloop
  endfacet
  facet normal  0.000000e+000  0.000000e+000 -1.000000e+000
    outer loop
      vertex -7.411146e+000  1.018809e+002  0.000000e+000
      vertex -9.011146e+000  1.030434e+002  0.000000e+000
      vertex  8.500000e+001  9.000000e+001  0.000000e+000
    endloop
  endfacet
  facet normal  -0.000000e+000  0.000000e+000 -1.000000e+000
    outer loop
      vertex  8.500000e+001  3.500000e+001  0.000000e+000
      vertex  9.901115e+001 -6.956619e+000  0.000000e+000
      vertex  9.741115e+001 -8.119087e+000  0.000000e+000
    endloop
  endfacet
  facet normal  -0.000000e+000  0.000000e+000 -1.000000e+000
    outer loop
      vertex  8.500000e+001  3.500000e+001  0.000000e+000
      vertex  9.741115e+001 -8.119087e+000  0.000000e+000
      vertex  9.680000e+001 -1.000000e+001  0.000000e+000
    endloop
  endfacet
  facet normal  -0.000000e+000  0.000000e+000 -1.000000e+000
    outer loop
      vertex  8.500000e+001  3.500000e+001  0.000000e+000
      vertex  9.680000e+001 -1.000000e+001  0.000000e+000
      vertex -9.011146e+000 -1.304338e+001  0.000000e+000
    endloop
  endfacet
  facet normal  0.000000e+000  0.000000e+000 -1.000000e+000
    outer loop
      vertex  8.500000e+001  3.500000e+001  0.000000e+000
      vertex -9.011146e+000 -1.304338e+001  0.000000e+000
      vertex -7.411146e+000 -1.188091e+001  0.000000e+000
    endloop
  endfacet
  facet normal  0.000000e+000  0.000000e+000 -1.000000e+000
    outer loop
      vertex  8.500000e+001  3.500000e+001  0.000000e+000
      vertex -7.411146e+000 -1.188091e+001  0.000000e+000
      vertex -6.800000e+000 -1.000000e+001  0.000000e+000
    endloop
  endfacet
  facet normal  0.000000e+000  0.000000e+000 -1.000000e+000
    outer loop
      vertex  5.000000e+000  9.000000e+001  0.000000e+000
      vertex -9.011146e+000  9.695662e+001  0.000000e+000
      vertex -7.411146e+000  9.811909e+001  0.000000e+000
    endloop
  endfacet
  facet normal  0.000000e+000  0.000000e+000 -1.000000e+000
    outer loop
      vertex  5.000000e+000  9.000000e+001  0.000000e+000
      vertex -7.411146e+000  9.811909e+001  0.000000e+000
      vertex -6.800000e+000  1.000000e+002  0.000000e+000
    endloop
  endfacet
  facet normal  0.000000e+000  0.000000e+000 -1.000000e+000
    outer loop
      vertex  5.000000e+000  9.000000e+001  0.000000e+000
      vertex -6.800000e+000  1.000000e+002  0.000000e+000
      vertex -7.411146e+000  1.018809e+002  0.000000e+000
    endloop
  endfacet
  facet normal  0.000000e+000  0.000000e+000 -1.000000e+000
    outer loop
      vertex  5.000000e+000  9.000000e+001  0.000000e+000
      vertex -7.411146e+000  1.018809e+002  0.000000e+000
      vertex  8.500000e+001  9.000000e+001  0.000000e+000
    endloop
  endfacet
  facet normal  -0.000000e+000  0.000000e+000 -1.000000e+000
    outer loop
      vertex  5.000000e+000  3.500000e+001  0.000000e+000
      vertex  8.500000e+001  3.500000e+001  0.000000e+000
      vertex -6.800000e+000 -1.000000e+001  0.000000e+000
    endloop
  endfacet
  facet normal  0.000000e+000  0.000000e+000 -1.000000e+000
    outer loop
      vertex  5.000000e+000  3.500000e+001  0.000000e+000
      vertex -6.800000e+000 -1.000000e+001  0.000000e+000
      vertex -7.411146e+000 -8.119087e+000  0.000000e+000
    endloop
  endfacet
  facet normal  0.000000e+000  0.000000e+000 -1.000000e+000
    outer loop
      vertex  5.000000e+000  3.500000e+001  0.000000e+000
      vertex -7.411146e+000 -8.119087e+000  0.000000e+000
      vertex -9.011146e+000 -6.956619e+000  0.000000e+000
    endloop
  endfacet
  facet normal  -0.000000e+000  0.000000e+000 -1.000000e+000
    outer loop
      vertex -1.500000e+001  1.050000e+002  0.000000e+000
      vertex  1.050000e+002  1.050000e+002  0.000000e+000
      vertex  1.009889e+002  1.030434e+002  0.000000e+000
    endloop
  endfacet
  facet normal  0.000000e+000  0.000000e+000 -1.000000e+000
    outer loop
      vertex -1.500000e+001  1.050000e+002  0.000000e+000
      vertex  1.009889e+002  1.030434e+002  0.000000e+000
      vertex  9.901115e+001  1.030434e+002  0.000000e+000
    endloop
  endfacet
  facet normal  -0.000000e+000  0.000000e+000 -1.000000e+000
    outer loop
      vertex -1.500000e+001  1.050000e+002  0.000000e+000
      vertex  9.901115e+001  1.030434e+002  0.000000e+000
      vertex  9.741115e+001  1.018809e+002  0.000000e+000
    endloop
  endfacet
  facet normal  -0.000000e+000  0.000000e+000 -1.000000e+000
    outer loop
      vertex -1.500000e+001  1.050000e+002  0.000000e+000
      vertex  9.741115e+001  1.018809e+002  0.000000e+000
      vertex  9.680000e+001  1.000000e+002  0.000000e+000
    endloop
  endfacet
  facet normal  -0.000000e+000  0.000000e+000 -9.999999e-001
    outer loop
      vertex -1.500000e+001  1.050000e+002  0.000000e+000
      vertex  9.680000e+001  1.000000e+002  0.000000e+000
      vertex  8.500000e+001  9.000000e+001  0.000000e+000
    endloop
  endfacet
  facet normal  0.000000e+000  0.000000e+000 -1.000000e+000
    outer loop
      vertex -1.500000e+001  1.050000e+002  0.000000e+000
      vertex  8.500000e+001  9.000000e+001  0.000000e+000
      vertex -9.011146e+000  1.030434e+002  0.000000e+000
    endloop
  endfacet
  facet normal  0.000000e+000  0.000000e+000 -1.000000e+000
    outer loop
      vertex -1.500000e+001  1.050000e+002  0.000000e+000
      vertex -9.011146e+000  1.030434e+002  0.000000e+000
      vertex -1.098885e+001  1.030434e+002  0.000000e+000
    endloop
  endfacet
  facet normal  -0.000000e+000  0.000000e+000 -1.000000e+000
    outer loop
      vertex -1.500000e+001  1.050000e+002  0.000000e+000
      vertex -1.098885e+001  1.030434e+002  0.000000e+000
      vertex -1.258885e+001  1.018809e+002  0.000000e+000
    endloop
  endfacet
  facet normal  -0.000000e+000  0.000000e+000 -1.000000e+000
    outer loop
      vertex -1.500000e+001  1.050000e+002  0.000000e+000
      vertex -1.258885e+001  1.018809e+002  0.000000e+000
      vertex -1.320000e+001  1.000000e+002  0.000000e+000
    endloop
  endfacet
  facet normal  -0.000000e+000  0.000000e+000 -1.000000e+000
    outer loop
      vertex -1.500000e+001  1.050000e+002  0.000000e+000
      vertex -1.320000e+001  1.000000e+002  0.000000e+000
      vertex -1.500000e+001 -1.500000e+001  0.000000e+000
    endloop
  endfacet
  facet normal  0.000000e+000  -0.000000e+000 -1.000000e+000
    outer loop
      vertex -1.500000e+001 -1.500000e+001  0.000000e+000
      vertex -1.320000e+001  1.000000e+002  0.000000e+000
      vertex -1.258885e+001  9.811909e+001  0.000000e+000
    endloop
  endfacet
  facet normal  0.000000e+000  -0.000000e+000 -1.000000e+000
    outer loop
      vertex -1.500000e+001 -1.500000e+001  0.000000e+000
      vertex -1.258885e+001  9.811909e+001  0.000000e+000
      vertex -1.098885e+001  9.695662e+001  0.000000e+000
    endloop
  endfacet
  facet normal  0.000000e+000  0.000000e+000 -9.999999e-001
    outer loop
      vertex -1.500000e+001 -1.500000e+001  0.000000e+000
      vertex -1.098885e+001  9.695662e+001  0.000000e+000
      vertex -1.258885e+001 -8.119087e+000  0.000000e+000
    endloop
  endfacet
  facet normal  0.000000e+000  0.000000e+000 -1.000000e+000
    outer loop
      vertex -1.500000e+001 -1.500000e+001  0.000000e+000
      vertex -1.258885e+001 -8.119087e+000  0.000000e+000
      vertex -1.320000e+001 -1.000000e+001  0.000000e+000
    endloop
  endfacet
  facet normal  0.000000e+000  -0.000000e+000 -1.000000e+000
    outer loop
      vertex -1.500000e+001 -1.500000e+001  0.000000e+000
      vertex -1.320000e+001 -1.000000e+001  0.000000e+000
      vertex -1.258885e+001 -1.188091e+001  0.000000e+000
    endloop
  endfacet
  facet normal  0.000000e+000  -0.000000e+000 -1.000000e+000
    outer loop
      vertex -1.500000e+001 -1.500000e+001  0.000000e+000
      vertex -1.258885e+001 -1.188091e+001  0.000000e+000
      vertex -1.098885e+001 -1.304338e+001  0.000000e+000
    endloop
  endfacet
  facet normal  0.000000e+000  -0.000000e+000 -1.000000e+000
    outer loop
      vertex -1.500000e+001 -1.500000e+001  0.000000e+000
      vertex -1.098885e+001 -1.304338e+001  0.000000e+000
      vertex -9.011146e+000 -1.304338e+001  0.000000e+000
    endloop
  endfacet
  facet normal  0.000000e+000  -0.000000e+000 -1.000000e+000
    outer loop
      vertex -1.500000e+001 -1.500000e+001  0.000000e+000
      vertex -9.011146e+000 -1.304338e+001  0.000000e+000
      vertex  9.680000e+001 -1.000000e+001  0.000000e+000
    endloop
  endfacet
  facet normal  0.000000e+000  -0.000000e+000 -1.000000e+000
    outer loop
      vertex -1.500000e+001 -1.500000e+001  0.000000e+000
      vertex  9.680000e+001 -1.000000e+001  0.000000e+000
      vertex  9.741115e+001 -1.188091e+001  0.000000e+000
    endloop
  endfacet
  facet normal  0.000000e+000  -0.000000e+000 -1.000000e+000
    outer loop
      vertex -1.500000e+001 -1.500000e+001  0.000000e+000
      vertex  9.741115e+001 -1.188091e+001  0.000000e+000
      vertex  9.901115e+001 -1.304338e+001  0.000000e+000
    endloop
  endfacet
  facet normal  0.000000e+000  -0.000000e+000 -1.000000e+000
    outer loop
      vertex -1.500000e+001 -1.500000e+001  0.000000e+000
      vertex  9.901115e+001 -1.304338e+001  0.000000e+000
      vertex  1.009889e+002 -1.304338e+001  0.000000e+000
    endloop
  endfacet
  facet normal  0.000000e+000  -0.000000e+000 -1.000000e+000
    outer loop
      vertex -1.500000e+001 -1.500000e+001  0.000000e+000
      vertex  1.009889e+002 -1.304338e+001  0.000000e+000
      vertex  1.050000e+002 -1.500000e+001  0.000000e+000
    endloop
  endfacet
  facet normal  0.000000e+000  0.000000e+000 -1.000000e+000
    outer loop
      vertex  1.050000e+002 -1.500000e+001  0.000000e+000
      vertex  1.009889e+002 -1.304338e+001  0.000000e+000
      vertex  1.025889e+002 -1.188091e+001  0.000000e+000
    endloop
  endfacet
  facet normal  0.000000e+000  0.000000e+000 -1.000000e+000
    outer loop
      vertex  1.050000e+002 -1.500000e+001  0.000000e+000
      vertex  1.025889e+002 -1.188091e+001  0.000000e+000
      vertex  1.032000e+002 -1.000000e+001  0.000000e+000
    endloop
  endfacet
  facet normal  0.000000e+000  0.000000e+000 -1.000000e+000
    outer loop
      vertex  1.050000e+002 -1.500000e+001  0.000000e+000
      vertex  1.032000e+002 -1.000000e+001  0.000000e+000
      vertex  1.025889e+002 -8.119087e+000  0.000000e+000
    endloop
  endfacet
  facet normal  0.000000e+000  0.000000e+000 -1.000000e+000
    outer loop
      vertex  1.050000e+002 -1.500000e+001  0.000000e+000
      vertex  1.025889e+002 -8.119087e+000  0.000000e+000
      vertex  1.009889e+002  9.695662e+001  0.000000e+000
    endloop
  endfacet
  facet normal  0.000000e+000  0.000000e+000 -1.000000e+000
    outer loop
      vertex  1.050000e+002 -1.500000e+001  0.000000e+000
      vertex  1.009889e+002  9.695662e+001  0.000000e+000
      vertex  1.025889e+002  9.811909e+001  0.000000e+000
    endloop
  endfacet
  facet normal  0.000000e+000  0.000000e+000 -1.000000e+000
    outer loop
      vertex  1.050000e+002 -1.500000e+001  0.000000e+000
      vertex  1.025889e+002  9.811909e+001  0.000000e+000
      vertex  1.032000e+002  1.000000e+002  0.000000e+000
    endloop
  endfacet
  facet normal  0.000000e+000  0.000000e+000 -1.000000e+000
    outer loop
      vertex  1.050000e+002  1.050000e+002  0.000000e+000
      vertex  1.050000e+002 -1.500000e+001  0.000000e+000
      vertex  1.032000e+002  1.000000e+002  0.000000e+000
    endloop
  endfacet
  facet normal  0.000000e+000  0.000000e+000 -1.000000e+000
    outer loop
      vertex  1.050000e+002  1.050000e+002  0.000000e+000
      vertex  1.032000e+002  1.000000e+002  0.000000e+000
      vertex  1.025889e+002  1.018809e+002  0.000000e+000
    endloop
  endfacet
  facet normal  0.000000e+000  0.000000e+000 -1.000000e+000
    outer loop
      vertex  1.050000e+002  1.050000e+002  0.000000e+000
      vertex  1.025889e+002  1.018809e+002  0.000000e+000
      vertex  1.009889e+002  1.030434e+002  0.000000e+000
    endloop
  endfacet
  facet normal  0.000000e+000  -0.000000e+000 -1.000000e+000
    outer loop
      vertex -1.258885e+001 -8.119087e+000  0.000000e+000
      vertex -1.098885e+001  9.695662e+001  0.000000e+000
      vertex -1.098885e+001 -6.956619e+000  0.000000e+000
    endloop
  endfacet
  facet normal  0.000000e+000  0.000000e+000 -1.000000e+000
    outer loop
      vertex -1.098885e+001 -6.956619e+000  0.000000e+000
      vertex -1.098885e+001  9.695662e+001  0.000000e+000
      vertex -9.011146e+000  9.695662e+001  0.000000e+000
    endloop
  endfacet
  facet normal  0.000000e+000  -0.000000e+000 -1.000000e+000
    outer loop
      vertex -1.098885e+001 -6.956619e+000  0.000000e+000
      vertex -9.011146e+000  9.695662e+001  0.000000e+000
      vertex -9.011146e+000 -6.956619e+000  0.000000e+000
    endloop
  endfacet
  facet normal  0.000000e+000  0.000000e+000 -1.000000e+000
    outer loop
      vertex -9.011146e+000 -6.956619e+000  0.000000e+000
      vertex -9.011146e+000  9.695662e+001  0.000000e+000
      vertex  5.000000e+000  9.000000e+001  0.000000e+000
    endloop
  endfacet
  facet normal  0.000000e+000  -0.000000e+000 -1.000000e+000
    outer loop
      vertex -9.011146e+000 -6.956619e+000  0.000000e+000
      vertex  5.000000e+000  9.000000e+001  0.000000e+000
      vertex  5.000000e+000  3.500000e+001  0.000000e+000
    endloop
  endfacet
  facet normal  0.000000e+000  0.000000e+000 -1.000000e+000
    outer loop
      vertex  1.025889e+002 -8.119087e+000  0.000000e+000
      vertex  1.009889e+002 -6.956619e+000  0.000000e+000
      vertex  1.009889e+002  9.695662e+001  0.000000e+000
    endloop
  endfacet
  facet normal  0.000000e+000  -0.000000e+000 -1.000000e+000
    outer loop
      vertex  1.009889e+002  9.695662e+001  0.000000e+000
      vertex  1.009889e+002 -6.956619e+000  0.000000e+000
      vertex  9.901115e+001 -6.956619e+000  0.000000e+000
    endloop
  endfacet
  facet normal  0.000000e+000  0.000000e+000 -1.000000e+000
    outer loop
      vertex  1.009889e+002  9.695662e+001  0.000000e+000
      vertex  9.901115e+001 -6.956619e+000  0.000000e+000
      vertex  9.901115e+001  9.695662e+001  0.000000e+000
    endloop
  endfacet
  facet normal  0.000000e+000  -0.000000e+000 -1.000000e+000
    outer loop
      vertex  9.901115e+001  9.695662e+001  0.000000e+000
      vertex  9.901115e+001 -6.956619e+000  0.000000e+000
      vertex  8.500000e+001  3.500000e+001  0.000000e+000
    endloop
  endfacet
  facet normal  0.000000e+000  0.000000e+000 -1.000000e+000
    outer loop
      vertex  9.901115e+001  9.695662e+001  0.000000e+000
      vertex  8.500000e+001  3.500000e+001  0.000000e+000
      vertex  8.500000e+001  9.000000e+001  0.000000e+000
    endloop
  endfacet
  facet normal  0.000000e+000 -1.000000e+000  0.000000e+000
    outer loop
      vertex  5.000000e+000  9.000000e+001  5.000000e+000
      vertex  5.000000e+000  9.000000e+001  0.000000e+000
      vertex  8.500000e+001  9.000000e+001  5.000000e+000
    endloop
  endfacet
  facet normal  0.000000e+000 -1.000000e+000  -0.000000e+000
    outer loop
      vertex  8.500000e+001  9.000000e+001  5.000000e+000
      vertex  5.000000e+000  9.000000e+001  0.000000e+000
      vertex  8.500000e+001  9.000000e+001  0.000000e+000
    endloop
  endfacet
  facet normal  1.000000e+000  0.000000e+000  0.000000e+000
    outer loop
      vertex  5.000000e+000  3.500000e+001  5.000000e+000
      vertex  5.000000e+000  3.500000e+001  0.000000e+000
      vertex  5.000000e+000  9.000000e+001  5.000000e+000
    endloop
  endfacet
  facet normal  1.000000e+000  0.000000e+000  0.000000e+000
    outer loop
      vertex  5.000000e+000  9.000000e+001  5.000000e+000
      vertex  5.000000e+000  3.500000e+001  0.000000e+000
      vertex  5.000000e+000  9.000000e+001  0.000000e+000
    endloop
  endfacet
  facet normal -1.000000e+000  0.000000e+000  0.000000e+000
    outer loop
      vertex  8.500000e+001  9.000000e+001  5.000000e+000
      vertex  8.500000e+001  9.000000e+001  0.000000e+000
      vertex  8.500000e+001  3.500000e+001  5.000000e+000
    endloop
  endfacet
  facet normal -1.000000e+000  0.000000e+000  0.000000e+000
    outer loop
      vertex  8.500000e+001  3.500000e+001  5.000000e+000
      vertex  8.500000e+001  9.000000e+001  0.000000e+000
      vertex  8.500000e+001  3.500000e+001  0.000000e+000
    endloop
  endfacet
  facet normal -5.877856e-001 -8.090168e-001  0.000000e+000
    outer loop
      vertex  1.009889e+002  1.030434e+002  5.000000e+000
      vertex  1.025889e+002  1.018809e+002  0.000000e+000
      vertex  1.025889e+002  1.018809e+002  5.000000e+000
    endloop
  endfacet
  facet normal -9.510566e-001 -3.090167e-001  -0.000000e+000
    outer loop
      vertex  1.025889e+002  1.018809e+002  5.000000e+000
      vertex  1.025889e+002  1.018809e+002  0.000000e+000
      vertex  1.032000e+002  1.000000e+002  0.000000e+000
    endloop
  endfacet
  facet normal -9.510566e-001 -3.090167e-001  0.000000e+000
    outer loop
      vertex  1.025889e+002  1.018809e+002  5.000000e+000
      vertex  1.032000e+002  1.000000e+002  0.000000e+000
      vertex  1.032000e+002  1.000000e+002  5.000000e+000
    endloop
  endfacet
  facet normal -5.877856e-001 -8.090168e-001  -0.000000e+000
    outer loop
      vertex  1.025889e+002  1.018809e+002  0.000000e+000
      vertex  1.009889e+002  1.030434e+002  5.000000e+000
      vertex  1.009889e+002  1.030434e+002  0.000000e+000
    endloop
  endfacet
  facet normal  0.000000e+000 -1.000000e+000  0.000000e+000
    outer loop
      vertex  1.009889e+002  1.030434e+002  0.000000e+000
      vertex  1.009889e+002  1.030434e+002  5.000000e+000
      vertex  9.901115e+001  1.030434e+002  5.000000e+000
    endloop
  endfacet
  facet normal  0.000000e+000 -1.000000e+000  0.000000e+000
    outer loop
      vertex  1.009889e+002  1.030434e+002  0.000000e+000
      vertex  9.901115e+001  1.030434e+002  5.000000e+000
      vertex  9.901115e+001  1.030434e+002  0.000000e+000
    endloop
  endfacet
  facet normal  5.877856e-001 -8.090168e-001  0.000000e+000
    outer loop
      vertex  9.901115e+001  1.030434e+002  0.000000e+000
      vertex  9.901115e+001  1.030434e+002  5.000000e+000
      vertex  9.741115e+001  1.018809e+002  5.000000e+000
    endloop
  endfacet
  facet normal  5.877856e-001 -8.090168e-001  0.000000e+000
    outer loop
      vertex  9.901115e+001  1.030434e+002  0.000000e+000
      vertex  9.741115e+001  1.018809e+002  5.000000e+000
      vertex  9.741115e+001  1.018809e+002  0.000000e+000
    endloop
  endfacet
  facet normal  9.510566e-001 -3.090167e-001  0.000000e+000
    outer loop
      vertex  9.741115e+001  1.018809e+002  0.000000e+000
      vertex  9.741115e+001  1.018809e+002  5.000000e+000
      vertex  9.680000e+001  1.000000e+002  5.000000e+000
    endloop
  endfacet
  facet normal  9.510566e-001 -3.090167e-001  0.000000e+000
    outer loop
      vertex  9.741115e+001  1.018809e+002  0.000000e+000
      vertex  9.680000e+001  1.000000e+002  5.000000e+000
      vertex  9.680000e+001  1.000000e+002  0.000000e+000
    endloop
  endfacet
  facet normal  5.877856e-001  8.090168e-001  -0.000000e+000
    outer loop
      vertex  9.901115e+001  9.695662e+001  5.000000e+000
      vertex  9.741115e+001  9.811909e+001  0.000000e+000
      vertex  9.741115e+001  9.811909e+001  5.000000e+000
    endloop
  endfacet
  facet normal  9.510566e-001  3.090167e-001  0.000000e+000
    outer loop
      vertex  9.741115e+001  9.811909e+001  5.000000e+000
      vertex  9.741115e+001  9.811909e+001  0.000000e+000
      vertex  9.680000e+001  1.000000e+002  0.000000e+000
    endloop
  endfacet
  facet normal  9.510566e-001  3.090167e-001  -0.000000e+000
    outer loop
      vertex  9.741115e+001  9.811909e+001  5.000000e+000
      vertex  9.680000e+001  1.000000e+002  0.000000e+000
      vertex  9.680000e+001  1.000000e+002  5.000000e+000
    endloop
  endfacet
  facet normal  5.877856e-001  8.090168e-001  0.000000e+000
    outer loop
      vertex  9.741115e+001  9.811909e+001  0.000000e+000
      vertex  9.901115e+001  9.695662e+001  5.000000e+000
      vertex  9.901115e+001  9.695662e+001  0.000000e+000
    endloop
  endfacet
  facet normal  0.000000e+000  1.000000e+000  0.000000e+000
    outer loop
      vertex  9.901115e+001  9.695662e+001  0.000000e+000
      vertex  9.901115e+001  9.695662e+001  5.000000e+000
      vertex  1.009889e+002  9.695662e+001  5.000000e+000
    endloop
  endfacet
  facet normal  0.000000e+000  1.000000e+000  0.000000e+000
    outer loop
      vertex  9.901115e+001  9.695662e+001  0.000000e+000
      vertex  1.009889e+002  9.695662e+001  5.000000e+000
      vertex  1.009889e+002  9.695662e+001  0.000000e+000
    endloop
  endfacet
  facet normal -5.877856e-001  8.090168e-001  0.000000e+000
    outer loop
      vertex  1.009889e+002  9.695662e+001  0.000000e+000
      vertex  1.009889e+002  9.695662e+001  5.000000e+000
      vertex  1.025889e+002  9.811909e+001  5.000000e+000
    endloop
  endfacet
  facet normal -5.877856e-001  8.090168e-001  0.000000e+000
    outer loop
      vertex  1.009889e+002  9.695662e+001  0.000000e+000
      vertex  1.025889e+002  9.811909e+001  5.000000e+000
      vertex  1.025889e+002  9.811909e+001  0.000000e+000
    endloop
  endfacet
  facet normal -9.510566e-001  3.090167e-001  0.000000e+000
    outer loop
      vertex  1.025889e+002  9.811909e+001  0.000000e+000
      vertex  1.025889e+002  9.811909e+001  5.000000e+000
      vertex  1.032000e+002  1.000000e+002  5.000000e+000
    endloop
  endfacet
  facet normal -9.510566e-001  3.090167e-001  0.000000e+000
    outer loop
      vertex  1.025889e+002  9.811909e+001  0.000000e+000
      vertex  1.032000e+002  1.000000e+002  5.000000e+000
      vertex  1.032000e+002  1.000000e+002  0.000000e+000
    endloop
  endfacet
  facet normal -5.877852e-001 -8.090170e-001  0.000000e+000
    outer loop
      vertex -9.011146e+000  1.030434e+002  5.000000e+000
      vertex -7.411146e+000  1.018809e+002  0.000000e+000
      vertex -7.411146e+000  1.018809e+002  5.000000e+000
    endloop
  endfacet
  facet normal -9.510565e-001 -3.090169e-001  -0.000000e+000
    outer loop
      vertex -7.411146e+000  1.018809e+002  5.000000e+000
      vertex -7.411146e+000  1.018809e+002  0.000000e+000
      vertex -6.800000e+000  1.000000e+002  0.000000e+000
    endloop
  endfacet
  facet normal -9.510565e-001 -3.090169e-001  0.000000e+000
    outer loop
      vertex -7.411146e+000  1.018809e+002  5.000000e+000
      vertex -6.800000e+000  1.000000e+002  0.000000e+000
      vertex -6.800000e+000  1.000000e+002  5.000000e+000
    endloop
  endfacet
  facet normal -5.877852e-001 -8.090170e-001  -0.000000e+000
    outer loop
      vertex -7.411146e+000  1.018809e+002  0.000000e+000
      vertex -9.011146e+000  1.030434e+002  5.000000e+000
      vertex -9.011146e+000  1.030434e+002  0.000000e+000
    endloop
  endfacet
  facet normal  0.000000e+000 -1.000000e+000  0.000000e+000
    outer loop
      vertex -9.011146e+000  1.030434e+002  0.000000e+000
      vertex -9.011146e+000  1.030434e+002  5.000000e+000
      vertex -1.098885e+001  1.030434e+002  5.000000e+000
    endloop
  endfacet
  facet normal  0.000000e+000 -1.000000e+000  0.000000e+000
    outer loop
      vertex -9.011146e+000  1.030434e+002  0.000000e+000
      vertex -1.098885e+001  1.030434e+002  5.000000e+000
      vertex -1.098885e+001  1.030434e+002  0.000000e+000
    endloop
  endfacet
  facet normal  5.877851e-001 -8.090171e-001  0.000000e+000
    outer loop
      vertex -1.098885e+001  1.030434e+002  0.000000e+000
      vertex -1.098885e+001  1.030434e+002  5.000000e+000
      vertex -1.258885e+001  1.018809e+002  5.000000e+000
    endloop
  endfacet
  facet normal  5.877851e-001 -8.090171e-001  0.000000e+000
    outer loop
      vertex -1.098885e+001  1.030434e+002  0.000000e+000
      vertex -1.258885e+001  1.018809e+002  5.000000e+000
      vertex -1.258885e+001  1.018809e+002  0.000000e+000
    endloop
  endfacet
  facet normal  9.510566e-001 -3.090167e-001  0.000000e+000
    outer loop
      vertex -1.258885e+001  1.018809e+002  0.000000e+000
      vertex -1.258885e+001  1.018809e+002  5.000000e+000
      vertex -1.320000e+001  1.000000e+002  5.000000e+000
    endloop
  endfacet
  facet normal  9.510566e-001 -3.090167e-001  0.000000e+000
    outer loop
      vertex -1.258885e+001  1.018809e+002  0.000000e+000
      vertex -1.320000e+001  1.000000e+002  5.000000e+000
      vertex -1.320000e+001  1.000000e+002  0.000000e+000
    endloop
  endfacet
  facet normal  5.877851e-001  8.090171e-001  -0.000000e+000
    outer loop
      vertex -1.098885e+001  9.695662e+001  5.000000e+000
      vertex -1.258885e+001  9.811909e+001  0.000000e+000
      vertex -1.258885e+001  9.811909e+001  5.000000e+000
    endloop
  endfacet
  facet normal  9.510566e-001  3.090167e-001  0.000000e+000
    outer loop
      vertex -1.258885e+001  9.811909e+001  5.000000e+000
      vertex -1.258885e+001  9.811909e+001  0.000000e+000
      vertex -1.320000e+001  1.000000e+002  0.000000e+000
    endloop
  endfacet
  facet normal  9.510566e-001  3.090167e-001  -0.000000e+000
    outer loop
      vertex -1.258885e+001  9.811909e+001  5.000000e+000
      vertex -1.320000e+001  1.000000e+002  0.000000e+000
      vertex -1.320000e+001  1.000000e+002  5.000000e+000
    endloop
  endfacet
  facet normal  5.877851e-001  8.090171e-001  0.000000e+000
    outer loop
      vertex -1.258885e+001  9.811909e+001  0.000000e+000
      vertex -1.098885e+001  9.695662e+001  5.000000e+000
      vertex -1.098885e+001  9.695662e+001  0.000000e+000
    endloop
  endfacet
  facet normal  0.000000e+000  1.000000e+000  0.000000e+000
    outer loop
      vertex -1.098885e+001  9.695662e+001  0.000000e+000
      vertex -1.098885e+001  9.695662e+001  5.000000e+000
      vertex -9.011146e+000  9.695662e+001  5.000000e+000
    endloop
  endfacet
  facet normal  0.000000e+000  1.000000e+000  0.000000e+000
    outer loop
      vertex -1.098885e+001  9.695662e+001  0.000000e+000
      vertex -9.011146e+000  9.695662e+001  5.000000e+000
      vertex -9.011146e+000  9.695662e+001  0.000000e+000
    endloop
  endfacet
  facet normal -5.877852e-001  8.090170e-001  0.000000e+000
    outer loop
      vertex -9.011146e+000  9.695662e+001  0.000000e+000
      vertex -9.011146e+000  9.695662e+001  5.000000e+000
      vertex -7.411146e+000  9.811909e+001  5.000000e+000
    endloop
  endfacet
  facet normal -5.877852e-001  8.090170e-001  0.000000e+000
    outer loop
      vertex -9.011146e+000  9.695662e+001  0.000000e+000
      vertex -7.411146e+000  9.811909e+001  5.000000e+000
      vertex -7.411146e+000  9.811909e+001  0.000000e+000
    endloop
  endfacet
  facet normal -9.510565e-001  3.090169e-001  0.000000e+000
    outer loop
      vertex -7.411146e+000  9.811909e+001  0.000000e+000
      vertex -7.411146e+000  9.811909e+001  5.000000e+000
      vertex -6.800000e+000  1.000000e+002  5.000000e+000
    endloop
  endfacet
  facet normal -9.510565e-001  3.090169e-001  0.000000e+000
    outer loop
      vertex -7.411146e+000  9.811909e+001  0.000000e+000
      vertex -6.800000e+000  1.000000e+002  5.000000e+000
      vertex -6.800000e+000  1.000000e+002  0.000000e+000
    endloop
  endfacet
  facet normal -5.877852e-001 -8.090170e-001  0.000000e+000
    outer loop
      vertex -9.011146e+000 -6.956619e+000  5.000000e+000
      vertex -7.411146e+000 -8.119087e+000  0.000000e+000
      vertex -7.411146e+000 -8.119087e+000  5.000000e+000
    endloop
  endfacet
  facet normal -9.510565e-001 -3.090169e-001  -0.000000e+000
    outer loop
      vertex -7.411146e+000 -8.119087e+000  5.000000e+000
      vertex -7.411146e+000 -8.119087e+000  0.000000e+000
      vertex -6.800000e+000 -1.000000e+001  0.000000e+000
    endloop
  endfacet
  facet normal -9.510565e-001 -3.090169e-001  0.000000e+000
    outer loop
      vertex -7.411146e+000 -8.119087e+000  5.000000e+000
      vertex -6.800000e+000 -1.000000e+001  0.000000e+000
      vertex -6.800000e+000 -1.000000e+001  5.000000e+000
    endloop
  endfacet
  facet normal -5.877852e-001 -8.090170e-001  -0.000000e+000
    outer loop
      vertex -7.411146e+000 -8.119087e+000  0.000000e+000
      vertex -9.011146e+000 -6.956619e+000  5.000000e+000
      vertex -9.011146e+000 -6.956619e+000  0.000000e+000
    endloop
  endfacet
  facet normal  0.000000e+000 -1.000000e+000  0.000000e+000
    outer loop
      vertex -9.011146e+000 -6.956619e+000  0.000000e+000
      vertex -9.011146e+000 -6.956619e+000  5.000000e+000
      vertex -1.098885e+001 -6.956619e+000  5.000000e+000
    endloop
  endfacet
  facet normal  0.000000e+000 -1.000000e+000  0.000000e+000
    outer loop
      vertex -9.011146e+000 -6.956619e+000  0.000000e+000
      vertex -1.098885e+001 -6.956619e+000  5.000000e+000
      vertex -1.098885e+001 -6.956619e+000  0.000000e+000
    endloop
  endfacet
  facet normal  5.877851e-001 -8.090171e-001  0.000000e+000
    outer loop
      vertex -1.098885e+001 -6.956619e+000  0.000000e+000
      vertex -1.098885e+001 -6.956619e+000  5.000000e+000
      vertex -1.258885e+001 -8.119087e+000  5.000000e+000
    endloop
  endfacet
  facet normal  5.877851e-001 -8.090171e-001  0.000000e+000
    outer loop
      vertex -1.098885e+001 -6.956619e+000  0.000000e+000
      vertex -1.258885e+001 -8.119087e+000  5.000000e+000
      vertex -1.258885e+001 -8.119087e+000  0.000000e+000
    endloop
  endfacet
  facet normal  9.510566e-001 -3.090167e-001  0.000000e+000
    outer loop
      vertex -1.258885e+001 -8.119087e+000  0.000000e+000
      vertex -1.258885e+001 -8.119087e+000  5.000000e+000
      vertex -1.320000e+001 -1.000000e+001  5.000000e+000
    endloop
  endfacet
  facet normal  9.510566e-001 -3.090167e-001  0.000000e+000
    outer loop
      vertex -1.258885e+001 -8.119087e+000  0.000000e+000
      vertex -1.320000e+001 -1.000000e+001  5.000000e+000
      vertex -1.320000e+001 -1.000000e+001  0.000000e+000
    endloop
  endfacet
  facet normal  5.877851e-001  8.090171e-001  -0.000000e+000
    outer loop
      vertex -1.098885e+001 -1.304338e+001  5.000000e+000
      vertex -1.258885e+001 -1.188091e+001  0.000000e+000
      vertex -1.258885e+001 -1.188091e+001  5.000000e+000
    endloop
  endfacet
  facet normal  9.510566e-001  3.090167e-001  0.000000e+000
    outer loop
      vertex -1.258885e+001 -1.188091e+001  5.000000e+000
      vertex -1.258885e+001 -1.188091e+001  0.000000e+000
      vertex -1.320000e+001 -1.000000e+001  0.000000e+000
    endloop
  endfacet
  facet normal  9.510566e-001  3.090167e-001  -0.000000e+000
    outer loop
      vertex -1.258885e+001 -1.188091e+001  5.000000e+000
      vertex -1.320000e+001 -1.000000e+001  0.000000e+000
      vertex -1.320000e+001 -1.000000e+001  5.000000e+000
    endloop
  endfacet
  facet normal  5.877851e-001  8.090171e-001  0.000000e+000
    outer loop
      vertex -1.258885e+001 -1.188091e+001  0.000000e+000
      vertex -1.098885e+001 -1.304338e+001  5.000000e+000
      vertex -1.098885e+001 -1.304338e+001  0.000000e+000
    endloop
  endfacet
  facet normal  0.000000e+000  1.000000e+000  0.000000e+000
    outer loop
      vertex -1.098885e+001 -1.304338e+001  0.000000e+000
      vertex -1.098885e+001 -1.304338e+001  5.000000e+000
      vertex -9.011146e+000 -1.304338e+001  5.000000e+000
    endloop
  endfacet
  facet normal  0.000000e+000  1.000000e+000  0.000000e+000
    outer loop
      vertex -1.098885e+001 -1.304338e+001  0.000000e+000
      vertex -9.011146e+000 -1.304338e+001  5.000000e+000
      vertex -9.011146e+000 -1.304338e+001  0.000000e+000
    endloop
  endfacet
  facet normal -5.877852e-001  8.090170e-001  0.000000e+000
    outer loop
      vertex -9.011146e+000 -1.304338e+001  0.000000e+000
      vertex -9.011146e+000 -1.304338e+001  5.000000e+000
      vertex -7.411146e+000 -1.188091e+001  5.000000e+000
    endloop
  endfacet
  facet normal -5.877852e-001  8.090170e-001  0.000000e+000
    outer loop
      vertex -9.011146e+000 -1.304338e+001  0.000000e+000
      vertex -7.411146e+000 -1.188091e+001  5.000000e+000
      vertex -7.411146e+000 -1.188091e+001  0.000000e+000
    endloop
  endfacet
  facet normal -9.510565e-001  3.090169e-001  0.000000e+000
    outer loop
      vertex -7.411146e+000 -1.188091e+001  0.000000e+000
      vertex -7.411146e+000 -1.188091e+001  5.000000e+000
      vertex -6.800000e+000 -1.000000e+001  5.000000e+000
    endloop
  endfacet
  facet normal -9.510565e-001  3.090169e-001  0.000000e+000
    outer loop
      vertex -7.411146e+000 -1.188091e+001  0.000000e+000
      vertex -6.800000e+000 -1.000000e+001  5.000000e+000
      vertex -6.800000e+000 -1.000000e+001  0.000000e+000
    endloop
  endfacet
  facet normal -5.877856e-001 -8.090168e-001  0.000000e+000
    outer loop
      vertex  1.009889e+002 -6.956619e+000  5.000000e+000
      vertex  1.025889e+002 -8.119087e+000  0.000000e+000
      vertex  1.025889e+002 -8.119087e+000  5.000000e+000
    endloop
  endfacet
  facet normal -9.510566e-001 -3.090167e-001  -0.000000e+000
    outer loop
      vertex  1.025889e+002 -8.119087e+000  5.000000e+000
      vertex  1.025889e+002 -8.119087e+000  0.000000e+000
      vertex  1.032000e+002 -1.000000e+001  0.000000e+000
    endloop
  endfacet
  facet normal -9.510566e-001 -3.090167e-001  0.000000e+000
    outer loop
      vertex  1.025889e+002 -8.119087e+000  5.000000e+000
      vertex  1.032000e+002 -1.000000e+001  0.000000e+000
      vertex  1.032000e+002 -1.000000e+001  5.000000e+000
    endloop
  endfacet
  facet normal -5.877856e-001 -8.090168e-001  -0.000000e+000
    outer loop
      vertex  1.025889e+002 -8.119087e+000  0.000000e+000
      vertex  1.009889e+002 -6.956619e+000  5.000000e+000
      vertex  1.009889e+002 -6.956619e+000  0.000000e+000
    endloop
  endfacet
  facet normal  0.000000e+000 -1.000000e+000  0.000000e+000
    outer loop
      vertex  1.009889e+002 -6.956619e+000  0.000000e+000
      vertex  1.009889e+002 -6.956619e+000  5.000000e+000
      vertex  9.901115e+001 -6.956619e+000  5.000000e+000
    endloop
  endfacet
  facet normal  0.000000e+000 -1.000000e+000  0.000000e+000
    outer loop
      vertex  1.009889e+002 -6.956619e+000  0.000000e+000
      vertex  9.901115e+001 -6.956619e+000  5.000000e+000
      vertex  9.901115e+001 -6.956619e+000  0.000000e+000
    endloop
  endfacet
  facet normal  5.877856e-001 -8.090168e-001  0.000000e+000
    outer loop
      vertex  9.901115e+001 -6.956619e+000  0.000000e+000
      vertex  9.901115e+001 -6.956619e+000  5.000000e+000
      vertex  9.741115e+001 -8.119087e+000  5.000000e+000
    endloop
  endfacet
  facet normal  5.877856e-001 -8.090168e-001  0.000000e+000
    outer loop
      vertex  9.901115e+001 -6.956619e+000  0.000000e+000
      vertex  9.741115e+001 -8.119087e+000  5.000000e+000
      vertex  9.741115e+001 -8.119087e+000  0.000000e+000
    endloop
  endfacet
  facet normal  9.510566e-001 -3.090167e-001  0.000000e+000
    outer loop
      vertex  9.741115e+001 -8.119087e+000  0.000000e+000
      vertex  9.741115e+001 -8.119087e+000  5.000000e+000
      vertex  9.680000e+001 -1.000000e+001  5.000000e+000
    endloop
  endfacet
  facet normal  9.510566e-001 -3.090167e-001  0.000000e+000
    outer loop
      vertex  9.741115e+001 -8.119087e+000  0.000000e+000
      vertex  9.680000e+001 -1.000000e+001  5.000000e+000
      vertex  9.680000e+001 -1.000000e+001  0.000000e+000
    endloop
  endfacet
  facet normal  5.877856e-001  8.090168e-001  -0.000000e+000
    outer loop
      vertex  9.901115e+001 -1.304338e+001  5.000000e+000
      vertex  9.741115e+001 -1.188091e+001  0.000000e+000
      vertex  9.741115e+001 -1.188091e+001  5.000000e+000
    endloop
  endfacet
  facet normal  9.510566e-001  3.090167e-001  0.000000e+000
    outer loop
      vertex  9.741115e+001 -1.188091e+001  5.000000e+000
      vertex  9.741115e+001 -1.188091e+001  0.000000e+000
      vertex  9.680000e+001 -1.000000e+001  0.000000e+000
    endloop
  endfacet
  facet normal  9.510566e-001  3.090167e-001  -0.000000e+000
    outer loop
      vertex  9.741115e+001 -1.188091e+001  5.000000e+000
      vertex  9.680000e+001 -1.000000e+001  0.000000e+000
      vertex  9.680000e+001 -1.000000e+001  5.000000e+000
    endloop
  endfacet
  facet normal  5.877856e-001  8.090168e-001  0.000000e+000
    outer loop
      vertex  9.741115e+001 -1.188091e+001  0.000000e+000
      vertex  9.901115e+001 -1.304338e+001  5.000000e+000
      vertex  9.901115e+001 -1.304338e+001  0.000000e+000
    endloop
  endfacet
  facet normal  0.000000e+000  1.000000e+000  0.000000e+000
    outer loop
      vertex  9.901115e+001 -1.304338e+001  0.000000e+000
      vertex  9.901115e+001 -1.304338e+001  5.000000e+000
      vertex  1.009889e+002 -1.304338e+001  5.000000e+000
    endloop
  endfacet
  facet normal  0.000000e+000  1.000000e+000  0.000000e+000
    outer loop
      vertex  9.901115e+001 -1.304338e+001  0.000000e+000
      vertex  1.009889e+002 -1.304338e+001  5.000000e+000
      vertex  1.009889e+002 -1.304338e+001  0.000000e+000
    endloop
  endfacet
  facet normal -5.877856e-001  8.090168e-001  0.000000e+000
    outer loop
      vertex  1.009889e+002 -1.304338e+001  0.000000e+000
      vertex  1.009889e+002 -1.304338e+001  5.000000e+000
      vertex  1.025889e+002 -1.188091e+001  5.000000e+000
    endloop
  endfacet
  facet normal -5.877856e-001  8.090168e-001  0.000000e+000
    outer loop
      vertex  1.009889e+002 -1.304338e+001  0.000000e+000
      vertex  1.025889e+002 -1.188091e+001  5.000000e+000
      vertex  1.025889e+002 -1.188091e+001  0.000000e+000
    endloop
  endfacet
  facet normal -9.510566e-001  3.090167e-001  0.000000e+000
    outer loop
      vertex  1.025889e+002 -1.188091e+001  0.000000e+000
      vertex  1.025889e+002 -1.188091e+001  5.000000e+000
      vertex  1.032000e+002 -1.000000e+001  5.000000e+000
    endloop
  endfacet
  facet normal -9.510566e-001  3.090167e-001  0.000000e+000
    outer loop
      vertex  1.025889e+002 -1.188091e+001  0.000000e+000
      vertex  1.032000e+002 -1.000000e+001  5.000000e+000
      vertex  1.032000e+002 -1.000000e+001  0.000000e+000
    endloop
  endfacet
  facet normal  0.000000e+000  1.000000e+000  0.000000e+000
    outer loop
      vertex  8.500000e+001  3.500000e+001  0.000000e+000
      vertex  5.000000e+000  3.500000e+001  0.000000e+000
      vertex  8.500000e+001  3.500000e+001  5.000000e+000
    endloop
  endfacet
  facet normal  0.000000e+000  1.000000e+000  0.000000e+000
    outer loop
      vertex  8.500000e+001  3.500000e+001  5.000000e+000
      vertex  5.000000e+000  3.500000e+001  0.000000e+000
      vertex  5.000000e+000  3.500000e+001  5.000000e+000
    endloop
  endfacet
endsolid CATIA STL
